<?xml version="1.0" standalone="no"?>
<!DOCTYPE svg PUBLIC "-//W3C//DTD SVG 20010904//EN"
 "http://www.w3.org/TR/2001/REC-SVG-20010904/DTD/svg10.dtd">
<svg version="1.0" xmlns="http://www.w3.org/2000/svg"
 width="512.000000pt" height="512.000000pt" viewBox="0 0 512.000000 512.000000"
 preserveAspectRatio="xMidYMid meet">

<g transform="translate(0.000000,512.000000) scale(0.100000,-0.100000)"
fill="#000000" stroke="none">
<path d="M2330 4315 c-373 -58 -700 -297 -868 -632 -26 -54 -59 -132 -71 -173
l-23 -75 -152 0 c-130 0 -161 -3 -226 -23 -240 -75 -429 -247 -520 -474 -76
-192 -69 -437 19 -625 88 -186 250 -338 437 -409 108 -40 200 -54 368 -54
l153 0 13 -92 c18 -134 44 -220 105 -343 147 -300 400 -504 734 -592 82 -22
119 -26 251 -27 164 -1 218 7 355 51 157 51 292 132 415 250 110 104 171 187
235 318 59 121 88 215 106 347 l12 87 356 3 356 3 72 34 c130 61 223 183 241
317 18 139 -22 259 -119 357 -68 68 -141 105 -237 119 l-67 10 -2 77 c-6 273
-224 481 -503 481 l-87 0 -7 65 c-8 76 -45 211 -87 310 -76 183 -256 395 -435
512 -243 159 -538 222 -824 178z m390 -130 c458 -98 799 -480 839 -942 5 -57
15 -111 22 -120 10 -12 24 -14 64 -9 133 18 173 18 231 1 120 -34 227 -138
261 -254 15 -53 14 -152 -3 -238 -4 -23 -1 -36 14 -51 19 -19 29 -20 110 -15
81 5 94 3 144 -19 63 -29 118 -81 150 -141 33 -60 33 -194 0 -254 -35 -66 -79
-110 -140 -140 l-57 -28 -341 -3 -342 -3 -12 82 c-60 416 -335 755 -724 895
-490 174 -1029 -9 -1313 -448 -82 -127 -140 -284 -164 -448 l-12 -83 -176 6
c-154 4 -186 8 -256 31 -277 89 -460 326 -472 611 -6 127 13 221 68 331 76
154 218 278 388 338 77 27 98 30 206 31 98 0 134 -4 195 -23 105 -33 188 -82
275 -162 78 -73 104 -83 137 -53 44 40 5 109 -116 202 -46 36 -157 100 -195
112 -19 7 -3 67 46 184 189 445 699 710 1173 610z m1 -1310 c707 -123 1053
-914 664 -1517 -60 -92 -188 -219 -283 -282 -327 -215 -757 -215 -1084 0 -95
63 -223 190 -283 282 -215 334 -217 752 -3 1079 215 330 610 505 989 438z"/>
<path d="M2378 2731 c-48 -11 -128 -39 -180 -63 -222 -106 -382 -293 -454
-533 -24 -78 -27 -108 -28 -225 0 -150 13 -222 64 -344 51 -122 82 -139 168
-89 88 50 112 72 112 103 0 33 -23 60 -51 60 -11 0 -38 -9 -60 -20 -22 -12
-44 -18 -49 -15 -15 9 -49 127 -61 209 -15 111 -1 227 42 341 l21 56 43 -26
c24 -14 52 -25 63 -25 28 0 52 32 52 68 0 26 -7 35 -45 58 -25 14 -45 31 -45
37 0 20 163 171 222 205 71 42 185 82 255 89 l53 6 0 -52 c0 -38 5 -56 20 -71
47 -47 100 -9 100 71 l0 52 53 -6 c70 -7 184 -47 255 -89 59 -34 222 -185 222
-205 0 -6 -21 -23 -46 -38 -42 -25 -45 -29 -42 -63 2 -28 10 -40 30 -52 26
-14 31 -13 77 13 l49 27 21 -56 c43 -113 57 -229 42 -340 -12 -82 -46 -200
-61 -209 -5 -3 -27 3 -49 15 -22 11 -49 20 -60 20 -28 0 -51 -27 -51 -60 0
-31 24 -53 112 -103 86 -50 117 -33 168 89 51 123 64 194 63 344 0 116 -4 147
-27 223 -45 151 -111 262 -222 371 -107 106 -241 183 -384 221 -101 26 -286
29 -392 6z"/>
<path d="M2809 2116 l-126 -74 -34 21 c-53 34 -136 30 -190 -8 -151 -107 -82
-335 101 -335 102 0 182 76 184 176 l1 42 129 73 c140 81 160 103 135 147 -26
47 -60 40 -200 -42z m-205 -172 c21 -20 20 -63 -1 -86 -35 -39 -103 -11 -103
43 0 36 24 59 60 59 16 0 36 -7 44 -16z"/>
</g>
</svg>
